<?xml version="1.0" encoding="UTF-8" standalone="no"?>
<svg
   xmlns:dc="http://purl.org/dc/elements/1.1/"
   xmlns:cc="http://creativecommons.org/ns#"
   xmlns:rdf="http://www.w3.org/1999/02/22-rdf-syntax-ns#"
   xmlns:svg="http://www.w3.org/2000/svg"
   xmlns="http://www.w3.org/2000/svg"
   xmlns:sodipodi="http://sodipodi.sourceforge.net/DTD/sodipodi-0.dtd"
   xmlns:inkscape="http://www.inkscape.org/namespaces/inkscape"
   sodipodi:docname="faviconf.svg"
   inkscape:version="1.0 (4035a4f, 2020-05-01)"
   id="svg8"
   version="1.1"
   viewBox="0 0 210 244"
   height="244mm"
   width="210mm">
  <defs
     id="defs2" />
  <sodipodi:namedview
     inkscape:window-maximized="0"
     inkscape:window-y="23"
     inkscape:window-x="98"
     inkscape:window-height="775"
     inkscape:window-width="1440"
     height="296mm"
     showgrid="false"
     inkscape:document-rotation="0"
     inkscape:current-layer="layer1"
     inkscape:document-units="mm"
     inkscape:cy="508.57143"
     inkscape:cx="-287.14286"
     inkscape:zoom="0.35"
     inkscape:pageshadow="2"
     inkscape:pageopacity="0.0"
     borderopacity="1.0"
     bordercolor="#666666"
     pagecolor="#ffffff"
     id="base" />
  <metadata
     id="metadata5">
    <rdf:RDF>
      <cc:Work
         rdf:about="">
        <dc:format>image/svg+xml</dc:format>
        <dc:type
           rdf:resource="http://purl.org/dc/dcmitype/StillImage" />
        <dc:title></dc:title>
      </cc:Work>
    </rdf:RDF>
  </metadata>
  <g
     id="layer1"
     inkscape:groupmode="layer"
     inkscape:label="レイヤー 1">
    <g
       transform="matrix(0.4186702,0,0,0.43880702,-4.3701829,16.933376)"
       id="g26"
       style="opacity:1">
      <g
         id="g14">
	<path
   class="st0"
   d="M 440.655,7.317 C 424.664,2.042 392.128,-7.143 352.213,9.54 308.554,27.773 281.035,73.386 242.246,202.001 c -0.443,1.485 -0.923,3.071 -1.42,4.722 H 119.09 v 53.065 h 106.094 c -15.678,53.61 -18.02,68.817 -26.855,97.858 -13.889,45.587 -61.974,140.503 -112.919,112.43 -1.531,-0.848 -3.153,-2.822 0.59,-3.661 24.052,-5.358 40.008,-28.654 35.913,-53.259 -4.242,-25.454 -31.375,-50.096 -66.198,-38.494 -30.378,10.126 -36.004,42.561 -35.118,65.552 0.295,7.931 4.647,18.472 6.934,22.336 21.599,42.128 98.661,77.45 170.485,17.596 53.618,-44.691 77.744,-120.933 104.747,-220.359 H 424.202 V 206.722 H 316.67 c 3.358,-13.17 6.363,-25.132 8.983,-35.35 22.466,-87.788 43.05,-119.503 60.277,-128.117 23.222,-11.611 33.994,1.282 34.824,8.291 1.384,11.777 -16.268,21.091 -18.076,38.734 -1.826,17.643 12.745,39.803 39.804,39.803 27.058,0 49.007,-21.94 49.007,-48.998 C 491.471,52.507 475.313,18.781 440.655,7.317 Z"
   style="fill:#000000"
   id="path12" />

</g>
    </g>
  </g>
  <style
     type="text/css"
     id="style10">
	.st0{fill:#4B4B4B;}
</style>
</svg>
